<svg xmlns="http://www.w3.org/2000/svg" version="1.1" xmlns:xlink="http://www.w3.org/1999/xlink" xmlns:svgjs="http://svgjs.dev/svgjs" viewBox="0 0 800 800" opacity="1"><defs><linearGradient x1="50%" y1="0%" x2="50%" y2="100%" id="uundulate-grad"><stop stop-color="hsl(37, 99%, 67%)" stop-opacity="1" offset="45%"></stop><stop stop-color="#d65369" stop-opacity="1" offset="100%"></stop></linearGradient></defs><g stroke-width="2" stroke="url(#uundulate-grad)" fill="none"><path d="M779.4396986328284 383.76040607541904C782.5947600899788 535.9268970817809 661.763555690518 711.2477946023794 518.4393420800566 762.4607342849467C375.115128469595 813.6736739675139 182.36374786453916 750.4028314012548 91.48347330261146 629.5825165517416C0.6031987406837516 508.76220170222825 -3.5800536886792997 307.00675198589283 82.2140241828044 182.52322300728235C168.0081020542881 58.039694028671875 358.0396982419793 -9.862835684785068 503.29504708573427 32.061577454410326C648.5503959294891 73.98599059360572 776.2846371756777 231.59391506905706 779.4396986328284 383.76040607541904C782.5947600899788 535.9268970817809 661.763555690518 711.2477946023794 518.4393420800566 762.4607342849467 "></path><path d="M762.9423191045498 384.466488645C765.9602039766069 530.017045259781 650.3825302032095 697.7152950620925 513.289804141029 746.7015851932438C376.19707807884834 795.687875324395 191.826192282708 735.1679389566689 104.89723400608148 619.6006812745258C17.968275729455 504.03342359238263 13.966903840499015 311.04994995067057 96.03080441322254 191.97874831895615C178.09470498594612 72.90754668724185 359.8640578611289 7.957300874369992 498.80395675515547 48.058913442296046C637.7438556491819 88.16052601022204 759.9244342324928 238.91593203021898 762.9423191045498 384.466488645C765.9602039766069 530.017045259781 650.3825302032095 697.7152950620925 513.289804141029 746.7015851932438 "></path><path d="M746.4449395762713 385.17251017942465C749.3256478632347 524.1071324026248 639.0015047159009 684.1827344866495 508.1402662020014 730.9423750663846C377.2790276881017 777.7020156461199 201.28863670087685 719.9329854769271 118.3109947095515 609.6187849621539C35.333352718226195 499.3045844473809 31.51386136967733 315.09308688029205 109.84758464364074 201.4342125954738C188.18130791760416 87.77533831065557 361.68841748027864 25.7773763983688 494.31286642457667 64.05618839502546C626.9373153688746 102.33500039168212 743.5642312893076 246.23788795622465 746.4449395762713 385.17251017942465C749.3256478632347 524.1071324026248 639.0015047159009 684.1827344866495 508.1402662020014 730.9423750663846 "></path><path d="M729.947621083149 385.87862326658365C732.6911527850189 518.1973110982028 627.6205402637487 670.6502654639406 502.99078929813004 715.1832564922598C378.36103833251127 759.7162475205791 210.75114215420183 704.6981235499193 131.72481644817776 599.6369802025164C52.698490742153695 494.5758368551135 49.06087993401189 319.1363153626479 123.66442590921508 210.88976842472584C198.26797188441833 102.64322148680367 363.5128381345846 43.597543475101986 489.821837129154 80.0535549004893C616.1308361237236 116.50956632587656 727.2040893812787 253.5599354349647 729.947621083149 385.87862326658365C732.6911527850189 518.1973110982028 627.6205402637487 670.6502654639406 502.99078929813004 715.1832564922598 "></path><path d="M713.450150002136 386.5846753185865C716.0565051189126 512.2874287586246 616.2394232237058 657.1177354060756 497.84115980636807 699.4240768829789C379.44289638903024 741.7304183598822 220.2134950196363 689.4632005877553 145.1384855989134 589.6551144077225C70.06347617819051 489.84702822768986 66.60774591045583 323.1794828098475 137.4811145868989 220.34526321882151C208.354483263342 117.51104362779552 365.33710620099987 61.41764951667892 485.33065524584094 96.05086037079684C605.3242042906819 130.68407122491482 710.8437948853594 260.8819218785485 713.450150002136 386.5846753185865C716.0565051189126 512.2874287586246 616.2394232237058 657.1177354060756 497.84115980636807 699.4240768829789 "></path><path d="M696.9527704738575 387.2907578881675C699.4219490055405 506.3775769366248 604.8583977363973 643.5852358657888 492.6916218673405 683.6649277912761C380.5248459982836 723.7446197167635 229.67593943780514 674.2283081431696 158.55224630238342 579.673279130507C87.42855316696176 485.11825011784435 84.15470343963415 327.22268077462536 151.29789481731706 229.80078853049542C218.44108619499997 132.3788962863655 367.1614658201495 79.23778607583398 480.83956491526214 112.04819635868256C594.5176640103746 144.85860664153114 694.4835919421744 268.2039388397104 696.9527704738575 387.2907578881675C699.4219490055405 506.3775769366248 604.8583977363973 643.5852358657888 492.6916218673405 683.6649277912761 "></path><path d="M680.4553909455789 387.99680994017035C682.7873928921683 500.4676945970466 593.4773722490887 630.0527058079238 487.5420839283129 667.9057481819951C381.6067956075369 705.7587905560665 239.13838385597393 658.9933851810056 171.96600700585344 569.6914133357132C104.79363015573296 480.3894414904207 101.70166096881246 331.26584822182497 165.1146750477352 239.25628332459115C228.52768912665795 147.24671842735734 368.9858254392992 97.05789211741092 476.34847458468334 128.0455018289901C583.7111237300674 159.03311154056934 678.1233889989893 275.5259252832942 680.4553909455789 387.99680994017035C682.7873928921683 500.4676945970466 593.4773722490887 630.0527058079238 487.5420839283129 667.9057481819951 "></path><path d="M663.9580419348785 388.70289250975134C666.1528672963746 494.55784277504654 582.0963772793583 616.5202062676369 482.3925765068634 652.1465990902923C382.6887757343684 687.7729919129478 248.60085879172084 643.7584927364198 185.37979822690158 559.7095780584975C122.15873766208233 475.6606633805752 119.2486490155689 335.3090461866027 178.93148579573148 248.711808636265C238.61432257589405 162.1145710859273 370.8102155760271 114.87802867656598 471.85741477168267 144.04283781687582C572.9046139673383 173.20764695718566 661.7632165733825 282.84794224445614 663.9580419348785 388.70289250975134C666.1528672963746 494.55784277504654 582.0963772793583 616.5202062676369 482.3925765068634 652.1465990902923 "></path><path d="M647.460677665389 389.4089750793323C649.5183264417915 488.6479909530466 570.715367050839 602.9877067273501 477.2430538266249 636.3874499985894C383.7707406024108 669.7871932698289 258.06331846867874 628.523600291834 198.79357418916067 549.7277427812819C139.5238299096426 470.9318852707297 136.79562180353628 339.35224415138043 192.74828128493868 258.16733394793886C248.7009407663411 176.98242374449728 372.63459045396576 132.69816523572104 467.36633969989293 160.04017380476148C562.0980889458201 187.38218237380198 645.4030288889865 290.16995920561806 647.460677665389 389.4089750793323C649.5183264417915 488.6479909530466 570.715367050839 602.9877067273501 477.2430538266249 636.3874499985894 "></path><path d="M630.9632828783215 390.11504239012424C632.8837550696304 482.7381238722576 559.3343263047414 589.4551919282741 472.0935006288082 620.6282856480975C384.8526749528751 651.8013793679211 267.5257476280585 613.2886925884591 212.20731963384162 539.7458922452771C156.88889163962477 466.20309190209514 154.34256407392553 343.3954268573691 206.56504625656777 267.6228440008237C258.78752843921006 191.8502611442782 374.4589348143263 150.51828653608698 462.87523411052507 176.03749453385814C551.2915334067236 201.55670253162924 629.0428106870124 297.4919609079909 630.9632828783215 390.11504239012424C632.8837550696304 482.7381238722576 559.3343263047414 589.4551919282741 472.0935006288082 620.6282856480975 "></path><path d="M614.4659033500429 390.8210944421271C616.2491989562584 476.8282415326795 547.9533008174328 575.9226618704091 466.9439626897806 604.8691060388167C385.9346245621284 633.8155502072241 276.9881920462273 598.0537696262952 225.62108033731164 529.7640264504832C174.25396862839597 461.4742832746714 171.88952160310384 347.4385943045688 220.38182648698591 277.07833879491943C268.87413137086804 206.71808328527004 376.28329443347604 168.3383925776639 458.38414377994627 192.03480000416567C540.4849931264164 215.73120743066744 612.6826077438272 304.8139473515747 614.4659033500429 390.8210944421271C616.2491989562584 476.8282415326795 547.9533008174328 575.9226618704091 466.9439626897806 604.8691060388167 "></path><path d="M597.9685238217643 391.5271770117081C599.6146428428864 470.91838971067955 536.5722753301243 562.3901623301222 461.794424750753 589.1099569471138C387.01657417138176 615.8297515641053 286.4506364643961 582.8188771817095 239.03484104078166 519.7821911732676C191.61904561716722 456.745505164826 189.4364791322821 351.48179226934656 234.19860671740406 286.5338641065933C278.960734302526 221.58593594384 378.1076540526258 186.15852913681897 453.89305344936747 208.0321359920514C529.6784528461092 229.90574284728376 596.3224048006423 312.13596431273663 597.9685238217643 391.5271770117081C599.6146428428864 470.91838971067955 536.5722753301243 562.3901623301222 461.794424750753 589.1099569471138 "></path><path d="M581.471174811064 392.2332595812891C582.9801172470925 465.0085378886795 525.1912803603939 548.8576627898353 456.64491732930355 573.350807855411C388.09855429821323 597.8439529209866 295.91311140014307 567.5839847371235 252.4486322618298 509.800355896052C208.98415312351653 452.0167270549804 206.98346717903854 355.52499023412435 248.01541746540033 295.98938941826714C289.0473677517621 236.45378860241 379.9320441893535 203.97866569597403 449.4019936363668 224.02947197993706C518.8719430833801 244.08027826390008 579.9622323750355 319.45798127389855 581.471174811064 392.2332595812891C582.9801172470925 465.0085378886795 525.1912803603939 548.8576627898353 456.64491732930355 573.350807855411 "></path><path d="M564.9737952827854 392.93929637450276C566.3455611337204 459.09864029031235 513.8102548730853 535.3251174731813 451.49537939027596 557.5916129873408C389.1805039074666 579.8581085015005 305.37555581831185 552.3490465161706 265.8623929652998 499.8184748424692C226.34923011228778 447.2879031687677 224.53042470821686 359.5681424225349 261.8321976958185 305.44486895357386C299.1339706834201 251.32159548461277 381.75640380850325 221.7987564787619 444.910903305788 240.0267621914556C508.06540280307274 258.2547679041492 563.6020294318503 326.7799524586933 564.9737952827854 392.93929637450276C566.3455611337204 459.09864029031235 513.8102548730853 535.3251174731813 451.49537939027596 557.5916129873408 "></path><path d="M548.4764157545069 393.64537894408375C549.7110050203484 453.1887884683124 502.4292293857768 521.7926179328945 446.34584145124836 541.832463895638C390.2624535167199 561.8723098583818 314.8380002364807 537.1141540715848 279.27615366876984 489.83663956525356C243.71430710105898 442.5591250589222 242.07738223739517 363.6113403873127 275.6489779262366 314.9003942652477C309.2205736150781 266.18944814318274 383.58076342765287 239.61889303791696 440.4198129752092 256.02409817934125C497.2588625227654 272.42930332076554 547.2418264886653 334.1019694198552 548.4764157545069 393.64537894408375C549.7110050203484 453.1887884683124 502.4292293857768 521.7926179328945 446.34584145124836 541.832463895638 "></path><path d="M531.9790362262283 394.35144625487567C533.0764489069763 447.27892138752327 491.0482038984683 508.26010313381846 441.19630351222077 526.0732995451461C391.34440312597326 543.8864959564739 324.3004446546495 521.8792463682099 292.68991437223985 479.85478902924876C261.0793840898302 437.8303316902876 259.6243397665735 367.65452309330135 289.4657581566548 324.3559043181325C319.30717654673606 281.05728554296365 385.4051230468026 257.43901433828296 435.9287226446304 272.0214189084379C486.4523222424582 286.6038234785928 530.8816235454804 341.42397112222807 531.9790362262283 394.35144625487567C533.0764489069763 447.27892138752327 491.0482038984683 508.26010313381846 441.19630351222077 526.0732995451461 "></path><path d="M515.4816719567389 395.05752882445665C516.4419080523933 441.3690695655233 479.6671936699488 494.7276035935315 436.04678083198223 510.3141504534433C392.42636799401566 525.9006973133551 333.7629043316074 506.64435392362407 306.10369033449894 469.872953752033C278.4444763373905 433.1015535804421 277.17131255454086 371.6977210580791 303.28255364586204 333.81142962980636C329.39379473718316 295.9251382015336 387.2294979247413 275.259150897438 431.43764757284066 288.01875489632357C475.6457972209399 300.7783588952092 514.5214358610843 348.74598808339 515.4816719567389 395.05752882445665C516.4419080523933 441.3690695655233 479.6671936699488 494.7276035935315 436.04678083198223 510.3141504534433 "></path><path d="M498.9842924284603 395.7635961352486C499.8073519390214 435.4592024847343 468.28616818264027 481.1950887944556 430.89724289295464 494.5549861029515C393.508317603269 507.91488341144714 343.2253487497762 491.40944622024927 319.51745103796895 459.89110321602834C295.80955332616173 428.37276021180753 294.7182700837192 375.7409037640678 317.0993338762802 343.2669396826912C339.48039766884114 310.79297560131454 389.053857543891 293.079272197804 426.94655724226186 304.0160756254202C464.8392569406327 314.95287905303644 498.16123291789927 356.06798978576285 498.9842924284603 395.7635961352486C499.8073519390214 435.4592024847343 468.28616818264027 481.1950887944556 430.89724289295464 494.5549861029515 "></path><path d="M482.4869129001818 396.4696481872514C483.17279582564925 429.5493201451562 456.90514269533173 467.66255873659065 425.74770495392704 478.7958064936704C394.59026721252235 489.92905425075026 352.687793167945 476.1745232580853 332.931211741439 449.9092374212346C313.1746303149329 423.64395158438384 312.2652276128975 379.7840712112675 330.91611410669833 352.72243447678693C349.5670006004991 325.6607977423064 390.8782171630407 310.89937823938095 422.45546691168306 320.01338109572777C454.03271666032543 329.12738395207464 481.8010299747142 363.38997622934664 482.4869129001818 396.4696481872514C483.17279582564925 429.5493201451562 456.90514269533173 467.66255873659065 425.74770495392704 478.7958064936704 "></path><path d="M465.9895181131142 397.1757154980433C466.53822445348817 423.6394530643671 445.52410194923414 454.1300439375147 420.5981517561104 463.03664214317854C395.67220156298663 471.94324034884244 362.15022232732474 460.93961555471043 346.3449571861199 439.92738688522985C330.5396920449151 418.9151582157493 329.81216988328674 383.82725391725614 344.7328790783274 362.1779445296717C359.65358827336803 340.5286351420873 392.7025615234013 328.71949953974695 417.9643613223152 336.0107018248244C443.2261611212291 343.3019041099019 465.4408117727402 370.7119779317195 465.9895181131142 397.1757154980433C466.53822445348817 423.6394530643671 445.52410194923414 454.1300439375147 420.5981517561104 463.03664214317854 "></path><path d="M449.4921538436247 397.8817980676243C449.9036835989052 417.72960124236715 434.14309172071466 440.5975443972278 415.44862907587185 447.27749305147574C396.75416643102903 453.95744170572357 371.61268200428265 445.70472311012463 359.758733148379 429.94555160801417C347.90478429247537 414.18638010590377 347.3591426712541 387.87045188203393 358.5496745675346 371.6334698413456C369.74020646381507 355.39648780065727 394.52693640134004 346.539636098902 413.47328625052546 352.0080378127101C432.4196360997109 357.4764395265182 449.08062408834417 378.0339948928814 449.4921538436247 397.8817980676243C449.9036835989052 417.72960124236715 434.14309172071466 440.5975443972278 415.44862907587185 447.27749305147574 "></path><path d="M432.9947590565571 398.5878653784162C433.2691122267441 411.8197341615781 422.76205097461707 427.0650295981519 410.2990758780552 431.51832870098383C397.8361007814933 435.97162780381575 381.07511116366237 430.4698154067497 373.17247859305996 419.9637010720094C365.26984602245756 409.45758673726914 364.90608494164337 391.9136345880226 372.3664395391637 381.0889798942304C379.82679413668404 370.2643252004382 396.35128076170065 364.359757399268 408.9821806611576 368.00535854180674C421.61308056061455 371.6509596843455 432.7204058863701 385.3559965952543 432.9947590565571 398.5878653784162C433.2691122267441 411.8197341615781 422.76205097461707 427.0650295981519 410.2990758780552 431.51832870098383 "></path><path d="M416.49737952827854 399.2939326892081C416.634556113372 405.90986708078907 411.38102548730853 413.53251479907595 405.1495379390276 415.7591643504919C398.91805039074666 417.9858139019079 390.5375555818312 415.23490770337486 386.58623929653 409.98185053600474C382.63492301122875 404.72879336863457 382.4530424708217 395.95681729401133 386.18321976958185 390.5444899471152C389.913397068342 385.1321626002191 398.1756403808503 382.179878699634 404.4910903305788 384.00267927090334C410.8065402803073 385.82547984217274 416.360202943185 392.67799829762714 416.49737952827854 399.2939326892081C416.634556113372 405.90986708078907 411.38102548730853 413.53251479907595 405.1495379390276 415.7591643504919 "></path></g></svg>